<svg width="255" height="52" viewBox="0 0 255 52" fill="none" xmlns="http://www.w3.org/2000/svg">
<path d="M0 3.04024H2.3414V49.4426H0V3.04024ZM14.0484 3.04024H16.3898V37.9484H33.6311V40.2898H16.3898V42.6312H33.6311V44.9726H16.3898V47.314H33.6311V49.6554H14.2613V3.2531L14.0484 3.04024ZM9.36561 3.04024H11.707V49.4426H9.36561V3.04024ZM4.6828 3.04024H7.02421V49.4426H4.6828V3.04024ZM52.5751 3.04024H54.9165V49.4426H52.5751V3.04024ZM47.8923 3.04024H50.2337V49.4426H47.8923V3.04024ZM43.2095 3.04024H45.5509V49.4426H43.2095V3.04024ZM38.5267 3.04024H40.8681V49.4426H38.5267V3.04024ZM109.62 3.04024H107.066L94.0818 26.4543L106.853 49.4426H109.407L96.6361 26.4543L109.62 3.04024ZM104.512 3.04024H101.957L88.9733 26.4543L101.745 49.4426H104.299L91.5275 26.4543L104.512 3.04024ZM99.4032 3.04024H96.8489L83.8648 26.4543L96.6361 49.4426H99.1903L86.419 26.4543L99.4032 3.04024ZM94.2947 3.04024H91.7404L78.7563 26.4543L91.5275 49.4426H94.0818L81.3105 26.4543L94.2947 3.04024ZM74.9249 3.04024H77.2663V49.4426H74.9249V3.04024ZM70.2421 3.04024H72.5835V49.4426H70.2421V3.04024ZM65.5593 3.04024H67.9007V49.4426H65.5593V3.04024ZM60.8765 3.04024H63.2179V49.4426H60.8765V3.04024ZM150.488 30.7114L148.147 26.4543V3.04024H150.488V30.7114ZM155.171 38.7998L152.83 34.9685V3.04024H155.171V38.7998ZM123.243 21.7715L125.584 26.0286V49.4426H123.243V21.7715ZM118.56 13.4701L120.902 17.7272V49.6554H118.56V13.4701ZM119.412 3.04024H122.179L148.998 49.4426H146.231L119.412 3.04024ZM124.946 3.04024H127.713L154.533 49.4426H151.765L124.946 3.04024ZM130.48 3.04024H133.247L157.725 45.3983V3.04024H160.067V49.4426H157.3L130.48 3.04024ZM116.432 7.08449V49.6554H114.09V3.2531H116.857L143.677 49.6554H140.91L116.219 7.08449H116.432ZM183.907 19.6429C181.991 21.5586 181.139 23.6872 181.139 26.2414C181.139 28.7957 181.991 30.9242 183.907 32.8399C185.822 34.7556 187.951 35.607 190.505 35.607C193.059 35.607 195.188 34.7556 197.104 32.8399C199.019 30.9242 199.871 28.7957 199.871 26.2414C199.871 23.6872 199.019 21.5586 197.104 19.6429C195.188 17.7272 193.059 16.8758 190.505 16.8758C187.951 16.8758 185.822 17.7272 183.907 19.6429ZM182.204 34.3299C179.862 31.9885 178.798 29.4342 178.798 26.0286C178.798 22.8357 179.862 20.0686 182.204 17.7272C184.545 15.3858 187.099 14.3215 190.505 14.3215C193.698 14.3215 196.465 15.3858 198.806 17.7272C201.148 20.0686 202.212 22.8357 202.212 26.0286C202.212 29.2214 201.148 31.9885 198.806 34.3299C196.465 36.6713 193.698 37.7356 190.505 37.7356C187.312 37.7356 184.545 36.6713 182.204 34.3299ZM180.501 16.2372C177.734 19.0044 176.457 22.1972 176.457 26.0286C176.457 29.8599 177.734 33.0528 180.501 35.8199C183.268 38.587 186.461 39.8641 190.292 39.8641C194.124 39.8641 197.529 38.587 200.083 35.8199C202.851 33.0528 204.128 29.8599 204.128 26.0286C204.128 22.1972 202.851 19.0044 200.083 16.2372C197.316 13.4701 194.124 12.193 190.292 12.193C186.461 12.193 183.268 13.4701 180.501 16.2372ZM176.244 34.3299C174.754 31.7756 174.115 29.0085 174.115 26.2414C174.115 23.2614 174.754 20.4943 176.244 18.1529C177.734 15.5987 179.649 13.683 182.204 12.193C184.758 10.703 187.525 10.0645 190.292 10.0645C193.272 10.0645 196.039 10.703 198.381 12.193C200.935 13.683 202.851 15.5987 204.341 18.1529C205.831 20.7072 206.469 23.4743 206.469 26.2414C206.469 29.2214 205.831 31.9885 204.341 34.3299C202.851 36.8842 200.935 38.7998 198.381 40.2898C195.826 41.7798 193.059 42.4184 190.292 42.4184C187.312 42.4184 184.545 41.7798 182.204 40.2898C179.649 38.7998 177.734 36.8842 176.244 34.3299ZM173.264 19.0044C172.199 21.3458 171.774 23.6872 171.774 26.2414C171.774 28.7957 172.199 31.1371 173.264 33.4785C174.328 35.8199 175.605 37.7356 177.308 39.4384C179.011 41.1412 180.927 42.4184 183.268 43.4827C185.609 44.5469 187.951 44.9726 190.505 44.9726C193.059 44.9726 195.401 44.5469 197.742 43.4827C200.083 42.4184 201.999 41.1412 203.702 39.4384C205.405 37.7356 206.682 35.8199 207.746 33.4785C208.811 31.1371 209.236 28.7957 209.236 26.2414C209.236 23.6872 208.811 21.3458 207.746 19.0044C206.682 16.663 205.405 14.7473 203.702 13.0444C201.999 11.3416 200.083 10.0645 197.742 9.00018C195.401 7.9359 193.059 7.51019 190.505 7.51019C187.951 7.51019 185.609 7.9359 183.268 9.00018C180.927 10.0645 179.011 11.3416 177.308 13.0444C175.605 14.7473 174.328 16.663 173.264 19.0044ZM171.135 34.3299C170.071 31.7756 169.432 29.0085 169.432 26.2414C169.432 23.4743 170.071 20.7072 171.135 18.1529C172.199 15.5987 173.689 13.2573 175.605 11.5544C177.521 9.63874 179.649 8.14876 182.204 7.08449C184.758 6.02021 187.525 5.38165 190.292 5.38165C193.059 5.38165 195.826 6.02021 198.381 7.08449C200.935 8.14876 203.276 9.63874 204.979 11.5544C206.895 13.4701 208.385 15.5987 209.449 18.1529C210.513 20.7072 211.152 23.4743 211.152 26.2414C211.152 29.0085 210.513 31.7756 209.449 34.3299C208.385 36.8842 206.895 39.2256 204.979 40.9284C203.063 42.8441 200.935 44.3341 198.381 45.3983C195.826 46.4626 193.059 47.1012 190.292 47.1012C187.525 47.1012 184.758 46.4626 182.204 45.3983C179.649 44.3341 177.308 42.8441 175.605 40.9284C173.689 39.0127 172.199 36.8842 171.135 34.3299ZM169.007 17.0887C167.73 19.8558 167.091 23.0486 167.091 26.0286C167.091 29.2214 167.73 32.2013 169.007 34.9685C170.284 37.9484 171.987 40.2898 173.902 42.4184C176.031 44.5469 178.372 46.2498 181.352 47.314C184.119 48.5912 187.312 49.2297 190.292 49.2297C193.485 49.2297 196.465 48.5912 199.232 47.314C202.212 46.0369 204.553 44.3341 206.682 42.4184C208.811 40.2898 210.301 37.9484 211.578 34.9685C212.855 32.2013 213.493 29.0085 213.493 26.0286C213.493 22.8357 212.855 19.8558 211.578 17.0887C210.301 14.1087 208.598 11.7673 206.682 9.63874C204.553 7.51019 202.212 6.02021 199.232 4.74308C196.465 3.46595 193.272 2.82739 190.292 2.82739C187.099 2.82739 184.119 3.46595 181.352 4.74308C178.372 6.02021 176.031 7.72305 173.902 9.63874C171.774 11.7673 170.071 14.1087 169.007 17.0887ZM166.878 36.0327C165.601 32.8399 164.75 29.6471 164.75 26.0286C164.75 22.6229 165.388 19.2172 166.878 16.0244C168.155 12.8316 170.071 10.0645 172.412 7.9359C174.754 5.5945 177.308 3.89166 180.501 2.40168C183.694 1.12455 186.886 0.273132 190.505 0.273132C193.911 0.273132 197.316 0.911697 200.509 2.40168C203.702 3.67881 206.469 5.5945 208.598 7.9359C210.939 10.2773 212.642 12.8316 214.132 16.0244C215.409 19.2172 216.26 22.41 216.26 26.0286C216.26 29.4342 215.622 32.8399 214.132 36.0327C212.855 39.2256 210.939 41.9927 208.598 44.1212C206.256 46.4626 203.702 48.1655 200.509 49.6554C197.316 50.9326 194.124 51.784 190.505 51.784C187.099 51.784 183.694 51.1454 180.501 49.6554C177.308 48.3783 174.541 46.4626 172.412 44.1212C170.071 41.7798 168.368 39.2256 166.878 36.0327ZM229.457 15.8115H231.799V49.4426H229.457V15.8115ZM220.092 5.16879V2.82739H255V5.16879H220.092ZM220.092 9.8516V7.51019H255V9.8516H220.092ZM220.092 14.5344V12.193H255V14.5344H220.092ZM243.293 15.8115H245.634V49.4426H243.293V15.8115ZM238.61 15.8115H240.952V49.4426H238.61V15.8115ZM233.927 15.8115H236.269V49.4426H233.927V15.8115Z" fill="#FFC700"/>
</svg>
