<svg width="105" height="22" viewBox="0 0 105 22" fill="none" xmlns="http://www.w3.org/2000/svg">
<path d="M0 1.13878H0.964107V20.2353H0V1.13878ZM5.78464 1.13878H6.74875V15.505H13.8481V16.4685H6.74875V17.4321H13.8481V18.3957H6.74875V19.3593H13.8481V20.3229H5.87229V1.22638L5.78464 1.13878ZM3.85643 1.13878H4.82053V20.2353H3.85643V1.13878ZM1.92821 1.13878H2.89232V20.2353H1.92821V1.13878ZM21.6486 1.13878H22.6127V20.2353H21.6486V1.13878ZM19.7204 1.13878H20.6845V20.2353H19.7204V1.13878ZM17.7922 1.13878H18.7563V20.2353H17.7922V1.13878ZM15.8639 1.13878H16.828V20.2353H15.8639V1.13878ZM45.1377 1.13878H44.086L38.7396 10.7746L43.9983 20.2353H45.0501L39.7913 10.7746L45.1377 1.13878ZM43.0342 1.13878H41.9825L36.6361 10.7746L41.8948 20.2353H42.9466L37.6878 10.7746L43.0342 1.13878ZM40.9307 1.13878H39.879L34.5326 10.7746L39.7913 20.2353H40.8431L35.5843 10.7746L40.9307 1.13878ZM38.8272 1.13878H37.7755L32.429 10.7746L37.6878 20.2353H38.7396L33.4808 10.7746L38.8272 1.13878ZM30.8514 1.13878H31.8155V20.2353H30.8514V1.13878ZM28.9232 1.13878H29.8873V20.2353H28.9232V1.13878ZM26.995 1.13878H27.9591V20.2353H26.995V1.13878ZM25.0668 1.13878H26.0309V20.2353H25.0668V1.13878ZM61.9658 12.5266L61.0017 10.7746V1.13878H61.9658V12.5266ZM63.894 15.8553L62.9299 14.2786V1.13878H63.894V15.8553ZM50.7471 8.84746L51.7112 10.5994V20.2353H50.7471V8.84746ZM48.8189 5.43111L49.783 7.18308V20.3229H48.8189V5.43111ZM49.1694 1.13878H50.3088L61.3523 20.2353H60.2129L49.1694 1.13878ZM51.4482 1.13878H52.5876L63.6311 20.2353H62.4916L51.4482 1.13878ZM53.727 1.13878H54.8664L64.9457 18.5709V1.13878H65.9099V20.2353H64.7704L53.727 1.13878ZM47.9424 2.80315V20.3229H46.9783V1.22638H48.1177L59.1611 20.3229H58.0217L47.8548 2.80315H47.9424ZM75.7262 7.97147C74.9374 8.75986 74.5868 9.63585 74.5868 10.687C74.5868 11.7382 74.9374 12.6142 75.7262 13.4026C76.515 14.191 77.3915 14.5414 78.4432 14.5414C79.495 14.5414 80.3714 14.191 81.1603 13.4026C81.9491 12.6142 82.2997 11.7382 82.2997 10.687C82.2997 9.63585 81.9491 8.75986 81.1603 7.97147C80.3714 7.18308 79.495 6.83269 78.4432 6.83269C77.3915 6.83269 76.515 7.18308 75.7262 7.97147ZM75.025 14.0158C74.0609 13.0522 73.6227 12.001 73.6227 10.5994C73.6227 9.28545 74.0609 8.14667 75.025 7.18308C75.9891 6.2195 77.0409 5.78151 78.4432 5.78151C79.7579 5.78151 80.8973 6.2195 81.8614 7.18308C82.8255 8.14667 83.2638 9.28545 83.2638 10.5994C83.2638 11.9134 82.8255 13.0522 81.8614 14.0158C80.8973 14.9794 79.7579 15.4174 78.4432 15.4174C77.1285 15.4174 75.9891 14.9794 75.025 14.0158ZM74.3239 6.56989C73.1845 7.70868 72.6586 9.02266 72.6586 10.5994C72.6586 12.1762 73.1845 13.4902 74.3239 14.629C75.4633 15.7677 76.778 16.2933 78.3556 16.2933C79.9332 16.2933 81.3356 15.7677 82.3873 14.629C83.5267 13.4902 84.0526 12.1762 84.0526 10.5994C84.0526 9.02266 83.5267 7.70868 82.3873 6.56989C81.2479 5.43111 79.9332 4.90552 78.3556 4.90552C76.778 4.90552 75.4633 5.43111 74.3239 6.56989ZM72.571 14.0158C71.9574 12.9646 71.6945 11.8258 71.6945 10.687C71.6945 9.46065 71.9574 8.32187 72.571 7.35828C73.1845 6.3071 73.9733 5.51871 75.025 4.90552C76.0768 4.29233 77.2162 4.02954 78.3556 4.02954C79.5826 4.02954 80.722 4.29233 81.6861 4.90552C82.7379 5.51871 83.5267 6.3071 84.1402 7.35828C84.7538 8.40946 85.0167 9.54825 85.0167 10.687C85.0167 11.9134 84.7538 13.0522 84.1402 14.0158C83.5267 15.067 82.7379 15.8553 81.6861 16.4685C80.6344 17.0817 79.495 17.3445 78.3556 17.3445C77.1285 17.3445 75.9891 17.0817 75.025 16.4685C73.9733 15.8553 73.1845 15.067 72.571 14.0158ZM71.3439 7.70868C70.9057 8.67226 70.7304 9.63585 70.7304 10.687C70.7304 11.7382 70.9057 12.7018 71.3439 13.6654C71.7821 14.629 72.308 15.4174 73.0092 16.1181C73.7104 16.8189 74.4992 17.3445 75.4633 17.7825C76.4274 18.2205 77.3915 18.3957 78.4432 18.3957C79.495 18.3957 80.4591 18.2205 81.4232 17.7825C82.3873 17.3445 83.1761 16.8189 83.8773 16.1181C84.5785 15.4174 85.1043 14.629 85.5426 13.6654C85.9808 12.7018 86.1561 11.7382 86.1561 10.687C86.1561 9.63585 85.9808 8.67226 85.5426 7.70868C85.1043 6.74509 84.5785 5.9567 83.8773 5.25592C83.1761 4.55513 82.3873 4.02954 81.4232 3.59154C80.4591 3.15355 79.495 2.97835 78.4432 2.97835C77.3915 2.97835 76.4274 3.15355 75.4633 3.59154C74.4992 4.02954 73.7104 4.55513 73.0092 5.25592C72.308 5.9567 71.7821 6.74509 71.3439 7.70868ZM70.4674 14.0158C70.0292 12.9646 69.7663 11.8258 69.7663 10.687C69.7663 9.54825 70.0292 8.40946 70.4674 7.35828C70.9057 6.3071 71.5192 5.34351 72.308 4.64273C73.0968 3.85434 73.9733 3.24115 75.025 2.80315C76.0768 2.36516 77.2162 2.10237 78.3556 2.10237C79.495 2.10237 80.6344 2.36516 81.6861 2.80315C82.7379 3.24115 83.702 3.85434 84.4032 4.64273C85.192 5.43111 85.8055 6.3071 86.2437 7.35828C86.682 8.40946 86.9449 9.54825 86.9449 10.687C86.9449 11.8258 86.682 12.9646 86.2437 14.0158C85.8055 15.067 85.192 16.0305 84.4032 16.7313C83.6143 17.5197 82.7379 18.1329 81.6861 18.5709C80.6344 19.0089 79.495 19.2717 78.3556 19.2717C77.2162 19.2717 76.0768 19.0089 75.025 18.5709C73.9733 18.1329 73.0092 17.5197 72.308 16.7313C71.5192 15.9429 70.9057 15.067 70.4674 14.0158ZM69.591 6.92029C69.0651 8.05907 68.8022 9.37305 68.8022 10.5994C68.8022 11.9134 69.0651 13.1398 69.591 14.2786C70.1169 15.505 70.818 16.4685 71.6068 17.3445C72.4833 18.2205 73.4474 18.9213 74.6745 19.3593C75.8139 19.8849 77.1285 20.1477 78.3556 20.1477C79.6703 20.1477 80.8973 19.8849 82.0367 19.3593C83.2638 18.8337 84.2279 18.1329 85.1043 17.3445C85.9808 16.4685 86.5943 15.505 87.1202 14.2786C87.6461 13.1398 87.909 11.8258 87.909 10.5994C87.909 9.28545 87.6461 8.05907 87.1202 6.92029C86.5943 5.69391 85.8932 4.73032 85.1043 3.85434C84.2279 2.97835 83.2638 2.36516 82.0367 1.83957C80.8973 1.31398 79.5826 1.05118 78.3556 1.05118C77.0409 1.05118 75.8139 1.31398 74.6745 1.83957C73.4474 2.36516 72.4833 3.06595 71.6068 3.85434C70.7304 4.73032 70.0292 5.69391 69.591 6.92029ZM68.7145 14.7166C68.1886 13.4026 67.8381 12.0886 67.8381 10.5994C67.8381 9.19785 68.101 7.79628 68.7145 6.4823C69.2404 5.16832 70.0292 4.02954 70.9933 3.15355C71.9574 2.18996 73.0092 1.48918 74.3239 0.875986C75.6386 0.350394 76.9533 0 78.4432 0C79.8456 0 81.2479 0.262796 82.5626 0.875986C83.8773 1.40158 85.0167 2.18996 85.8932 3.15355C86.8573 4.11713 87.5584 5.16832 88.172 6.4823C88.6978 7.79628 89.0484 9.11025 89.0484 10.5994C89.0484 12.001 88.7855 13.4026 88.172 14.7166C87.6461 16.0305 86.8573 17.1693 85.8932 18.0453C84.929 19.0089 83.8773 19.7097 82.5626 20.3229C81.2479 20.8485 79.9332 21.1989 78.4432 21.1989C77.0409 21.1989 75.6386 20.9361 74.3239 20.3229C73.0092 19.7973 71.8698 19.0089 70.9933 18.0453C70.0292 17.0817 69.328 16.0305 68.7145 14.7166ZM94.4825 6.3947H95.4466V20.2353H94.4825V6.3947ZM90.626 2.01477V1.05118H105V2.01477H90.626ZM90.626 3.94194V2.97835H105V3.94194H90.626ZM90.626 5.86911V4.90552H105V5.86911H90.626ZM100.179 6.3947H101.144V20.2353H100.179V6.3947ZM98.2513 6.3947H99.2154V20.2353H98.2513V6.3947ZM96.323 6.3947H97.2871V20.2353H96.323V6.3947Z" fill="#FFC700"/>
</svg>
