<svg width="20" height="20" viewBox="0 0 20 20" fill="none" xmlns="http://www.w3.org/2000/svg">
<path d="M7.6257 5.33815C7.13688 6.07738 5.99997 7.13887 5.99997 8C5.99997 8.99723 7.06261 11.0054 8.44268 12.3684C9.82274 13.7315 10.9903 14.5 12 14.5C12.6874 14.5 13.0328 12.8421 14.8689 12.8421C16.2459 12.8421 18 14.3421 18.5 16C18.7867 16.9506 17.6639 17.8088 16.4048 18.4062C15.4177 18.8747 14.311 19.0432 13.2234 18.9385C11.2369 18.7474 8.40465 17.9623 4.99998 14.7368C1.09846 10.5 0.901481 7.72438 0.999974 5.01385C1.09847 2.30332 3.49998 1 4.31156 1C5.06449 1 7.42441 3.03844 7.7616 4.64692C7.81183 4.88649 7.76071 5.13397 7.6257 5.33815Z" stroke="white" stroke-width="1.4" stroke-linecap="round" stroke-linejoin="round"/>
</svg>
